<svg xmlns="http://www.w3.org/2000/svg" width="112.03" height="35" viewBox="0 0 112.03 35"><rect class="svg__rect" x="0" y="0" width="66.74" height="35" fill="#31C4F3"/><rect class="svg__rect" x="64.74" y="0" width="47.290000000000006" height="35" fill="#389AD5"/><path class="svg__text" d="M13.95 18.00L13.95 18.00L13.95 17.52Q13.95 16.28 14.39 15.32Q14.83 14.37 15.64 13.86Q16.44 13.35 17.49 13.35Q18.53 13.35 19.34 13.85Q20.14 14.35 20.58 15.29Q21.02 16.23 21.03 17.48L21.03 17.48L21.03 17.96Q21.03 19.21 20.59 20.16Q20.16 21.10 19.35 21.61Q18.55 22.12 17.50 22.12L17.50 22.12Q16.46 22.12 15.65 21.61Q14.84 21.10 14.40 20.17Q13.95 19.23 13.95 18.00ZM15.43 17.46L15.43 17.96Q15.43 19.36 15.98 20.13Q16.53 20.90 17.50 20.90L17.50 20.90Q18.48 20.90 19.01 20.15Q19.54 19.40 19.54 17.96L19.54 17.96L19.54 17.51Q19.54 16.09 19.01 15.34Q18.47 14.58 17.49 14.58L17.49 14.58Q16.53 14.58 15.98 15.33Q15.44 16.09 15.43 17.46L15.43 17.46ZM26.97 22L25.49 22L25.49 13.47L28.75 13.47Q30.18 13.47 31.02 14.21Q31.87 14.96 31.87 16.18L31.87 16.18Q31.87 17.44 31.04 18.13Q30.22 18.83 28.74 18.83L28.74 18.83L26.97 18.83L26.97 22ZM26.97 14.66L26.97 17.64L28.75 17.64Q29.55 17.64 29.96 17.27Q30.38 16.90 30.38 16.19L30.38 16.19Q30.38 15.50 29.96 15.09Q29.53 14.68 28.80 14.66L28.80 14.66L26.97 14.66ZM41.73 22L36.15 22L36.15 13.47L41.69 13.47L41.69 14.66L37.63 14.66L37.63 17.02L41.14 17.02L41.14 18.19L37.63 18.19L37.63 20.82L41.73 20.82L41.73 22ZM47.40 22L45.92 22L45.92 13.47L47.40 13.47L51.22 19.54L51.22 13.47L52.69 13.47L52.69 22L51.21 22L47.40 15.95L47.40 22Z" fill="#FFFFFF"/><path class="svg__text" d="M78.50 17.80L78.50 17.80Q78.50 16.54 79.10 15.54Q79.70 14.55 80.75 13.99Q81.80 13.43 83.12 13.43L83.12 13.43Q84.27 13.43 85.19 13.84Q86.12 14.25 86.73 15.02L86.73 15.02L85.22 16.39Q84.41 15.40 83.24 15.40L83.24 15.40Q82.55 15.40 82.02 15.70Q81.49 16 81.19 16.54Q80.90 17.09 80.90 17.80L80.90 17.80Q80.90 18.51 81.19 19.05Q81.49 19.60 82.02 19.90Q82.55 20.20 83.24 20.20L83.24 20.20Q84.41 20.20 85.22 19.22L85.22 19.22L86.73 20.58Q86.12 21.35 85.20 21.76Q84.27 22.17 83.12 22.17L83.12 22.17Q81.80 22.17 80.75 21.61Q79.70 21.05 79.10 20.05Q78.50 19.06 78.50 17.80ZM93.85 22L90.26 13.60L92.83 13.60L95.11 19.07L97.44 13.60L99.79 13.60L96.19 22L93.85 22Z" fill="#FFFFFF" x="77.74"/></svg>